<svg width="375" height="375" viewBox="0 0 375 375" fill="none" xmlns="http://www.w3.org/2000/svg">
<rect width="375" height="375" rx="8" fill="#F6F6F6"/>
<g clipPath="url(#clip0_1047_4285)">
<path d="M172.928 180.217L172.896 180.249C172.464 179.305 172.192 178.233 172.08 177.049C172.192 178.217 172.496 179.273 172.928 180.217ZM183.2 166.409C184.21 166.409 185.179 166.008 185.893 165.294C186.607 164.579 187.008 163.611 187.008 162.601C187.008 161.591 186.607 160.622 185.893 159.908C185.179 159.194 184.21 158.793 183.2 158.793C182.19 158.793 181.222 159.194 180.507 159.908C179.793 160.622 179.392 161.591 179.392 162.601C179.392 163.611 179.793 164.579 180.507 165.294C181.222 166.008 182.19 166.409 183.2 166.409Z" fill="#B2B4B3"/>
<path d="M194.704 153H181.296C175.472 153 172 156.472 172 162.296V175.704C172 177.448 172.304 178.968 172.896 180.248C174.272 183.288 177.216 185 181.296 185H194.704C200.528 185 204 181.528 204 175.704V162.296C204 156.472 200.528 153 194.704 153ZM201.392 169.8C200.144 168.728 198.128 168.728 196.88 169.8L190.224 175.512C188.976 176.584 186.96 176.584 185.712 175.512L185.168 175.064C184.032 174.072 182.224 173.976 180.944 174.84L174.96 178.856C174.608 177.96 174.4 176.92 174.4 175.704V162.296C174.4 157.784 176.784 155.4 181.296 155.4H194.704C199.216 155.4 201.6 157.784 201.6 162.296V169.976L201.392 169.8Z" fill="#B2B4B3"/>
</g>
<path opacity="0.7" d="M144.562 217L149.634 205.8H151.218L156.306 217H154.626L150.098 206.696H150.738L146.21 217H144.562ZM146.722 214.2L147.154 212.92H153.458L153.922 214.2H146.722ZM161.179 217.096C160.357 217.096 159.621 216.915 158.971 216.552C158.331 216.189 157.824 215.683 157.451 215.032C157.077 214.381 156.891 213.624 156.891 212.76C156.891 211.896 157.077 211.144 157.451 210.504C157.824 209.853 158.331 209.347 158.971 208.984C159.621 208.621 160.357 208.44 161.179 208.44C161.893 208.44 162.539 208.6 163.115 208.92C163.691 209.24 164.149 209.72 164.491 210.36C164.843 211 165.019 211.8 165.019 212.76C165.019 213.72 164.848 214.52 164.507 215.16C164.176 215.8 163.723 216.285 163.147 216.616C162.571 216.936 161.915 217.096 161.179 217.096ZM161.307 215.752C161.84 215.752 162.32 215.629 162.747 215.384C163.184 215.139 163.525 214.792 163.771 214.344C164.027 213.885 164.155 213.357 164.155 212.76C164.155 212.152 164.027 211.629 163.771 211.192C163.525 210.744 163.184 210.397 162.747 210.152C162.32 209.907 161.84 209.784 161.307 209.784C160.763 209.784 160.277 209.907 159.851 210.152C159.424 210.397 159.083 210.744 158.827 211.192C158.571 211.629 158.443 212.152 158.443 212.76C158.443 213.357 158.571 213.885 158.827 214.344C159.083 214.792 159.424 215.139 159.851 215.384C160.277 215.629 160.763 215.752 161.307 215.752ZM164.203 217V214.712L164.299 212.744L164.139 210.776V205.128H165.675V217H164.203ZM172.085 217.096C171.264 217.096 170.528 216.915 169.877 216.552C169.237 216.189 168.73 215.683 168.357 215.032C167.984 214.381 167.797 213.624 167.797 212.76C167.797 211.896 167.984 211.144 168.357 210.504C168.73 209.853 169.237 209.347 169.877 208.984C170.528 208.621 171.264 208.44 172.085 208.44C172.8 208.44 173.445 208.6 174.021 208.92C174.597 209.24 175.056 209.72 175.397 210.36C175.749 211 175.925 211.8 175.925 212.76C175.925 213.72 175.754 214.52 175.413 215.16C175.082 215.8 174.629 216.285 174.053 216.616C173.477 216.936 172.821 217.096 172.085 217.096ZM172.213 215.752C172.746 215.752 173.226 215.629 173.653 215.384C174.09 215.139 174.432 214.792 174.677 214.344C174.933 213.885 175.061 213.357 175.061 212.76C175.061 212.152 174.933 211.629 174.677 211.192C174.432 210.744 174.09 210.397 173.653 210.152C173.226 209.907 172.746 209.784 172.213 209.784C171.669 209.784 171.184 209.907 170.757 210.152C170.33 210.397 169.989 210.744 169.733 211.192C169.477 211.629 169.349 212.152 169.349 212.76C169.349 213.357 169.477 213.885 169.733 214.344C169.989 214.792 170.33 215.139 170.757 215.384C171.184 215.629 171.669 215.752 172.213 215.752ZM175.109 217V214.712L175.205 212.744L175.045 210.776V205.128H176.581V217H175.109ZM184.008 217V205.8H188.376C189.357 205.8 190.195 205.955 190.888 206.264C191.581 206.573 192.115 207.021 192.488 207.608C192.861 208.195 193.048 208.893 193.048 209.704C193.048 210.515 192.861 211.213 192.488 211.8C192.115 212.376 191.581 212.824 190.888 213.144C190.195 213.453 189.357 213.608 188.376 213.608H184.888L185.608 212.856V217H184.008ZM185.608 213.016L184.888 212.216H188.328C189.352 212.216 190.125 211.997 190.648 211.56C191.181 211.123 191.448 210.504 191.448 209.704C191.448 208.904 191.181 208.285 190.648 207.848C190.125 207.411 189.352 207.192 188.328 207.192H184.888L185.608 206.392V213.016ZM199.859 208.44C200.552 208.44 201.16 208.573 201.683 208.84C202.216 209.107 202.632 209.512 202.931 210.056C203.23 210.6 203.379 211.288 203.379 212.12V217H201.843V212.296C201.843 211.475 201.64 210.856 201.235 210.44C200.84 210.024 200.28 209.816 199.555 209.816C199.011 209.816 198.536 209.923 198.131 210.136C197.726 210.349 197.411 210.664 197.187 211.08C196.974 211.496 196.867 212.013 196.867 212.632V217H195.331V205.128H196.867V210.808L196.563 210.2C196.84 209.645 197.267 209.213 197.843 208.904C198.419 208.595 199.091 208.44 199.859 208.44ZM209.854 217.096C209 217.096 208.243 216.909 207.582 216.536C206.92 216.163 206.398 215.651 206.014 215C205.63 214.339 205.438 213.592 205.438 212.76C205.438 211.917 205.63 211.171 206.014 210.52C206.398 209.869 206.92 209.363 207.582 209C208.243 208.627 209 208.44 209.854 208.44C210.696 208.44 211.448 208.627 212.11 209C212.782 209.363 213.304 209.869 213.678 210.52C214.062 211.16 214.254 211.907 214.254 212.76C214.254 213.603 214.062 214.349 213.678 215C213.304 215.651 212.782 216.163 212.11 216.536C211.448 216.909 210.696 217.096 209.854 217.096ZM209.854 215.752C210.398 215.752 210.883 215.629 211.31 215.384C211.747 215.139 212.088 214.792 212.334 214.344C212.579 213.885 212.702 213.357 212.702 212.76C212.702 212.152 212.579 211.629 212.334 211.192C212.088 210.744 211.747 210.397 211.31 210.152C210.883 209.907 210.398 209.784 209.854 209.784C209.31 209.784 208.824 209.907 208.398 210.152C207.971 210.397 207.63 210.744 207.374 211.192C207.118 211.629 206.99 212.152 206.99 212.76C206.99 213.357 207.118 213.885 207.374 214.344C207.63 214.792 207.971 215.139 208.398 215.384C208.824 215.629 209.31 215.752 209.854 215.752ZM219.29 217.096C218.437 217.096 217.775 216.867 217.306 216.408C216.837 215.949 216.602 215.293 216.602 214.44V206.664H218.138V214.376C218.138 214.835 218.25 215.187 218.474 215.432C218.709 215.677 219.039 215.8 219.466 215.8C219.946 215.8 220.346 215.667 220.666 215.4L221.146 216.504C220.911 216.707 220.629 216.856 220.298 216.952C219.978 217.048 219.642 217.096 219.29 217.096ZM215.162 209.784V208.52H220.57V209.784H215.162ZM226.354 217.096C225.5 217.096 224.743 216.909 224.082 216.536C223.42 216.163 222.898 215.651 222.514 215C222.13 214.339 221.938 213.592 221.938 212.76C221.938 211.917 222.13 211.171 222.514 210.52C222.898 209.869 223.42 209.363 224.082 209C224.743 208.627 225.5 208.44 226.354 208.44C227.196 208.44 227.948 208.627 228.61 209C229.282 209.363 229.804 209.869 230.178 210.52C230.562 211.16 230.754 211.907 230.754 212.76C230.754 213.603 230.562 214.349 230.178 215C229.804 215.651 229.282 216.163 228.61 216.536C227.948 216.909 227.196 217.096 226.354 217.096ZM226.354 215.752C226.898 215.752 227.383 215.629 227.81 215.384C228.247 215.139 228.588 214.792 228.834 214.344C229.079 213.885 229.202 213.357 229.202 212.76C229.202 212.152 229.079 211.629 228.834 211.192C228.588 210.744 228.247 210.397 227.81 210.152C227.383 209.907 226.898 209.784 226.354 209.784C225.81 209.784 225.324 209.907 224.898 210.152C224.471 210.397 224.13 210.744 223.874 211.192C223.618 211.629 223.49 212.152 223.49 212.76C223.49 213.357 223.618 213.885 223.874 214.344C224.13 214.792 224.471 215.139 224.898 215.384C225.324 215.629 225.81 215.752 226.354 215.752Z" fill="#747985"/>
<defs>
<clipPath id="clip0_1047_4285">
<rect width="32" height="32" fill="white" transform="translate(172 153)"/>
</clipPath>
</defs>
</svg>
