<svg width="114" height="108" viewBox="0 0 114 108" fill="none" xmlns="http://www.w3.org/2000/svg">
<rect width="114" height="108" rx="8" fill="#F6F6F6"/>
<path d="M48.5219 52.3088L48.5039 52.3268C48.2609 51.7958 48.1079 51.1928 48.0449 50.5268C48.1079 51.1838 48.2789 51.7778 48.5219 52.3088ZM54.2999 44.5418C54.868 44.5418 55.4128 44.3161 55.8145 43.9144C56.2162 43.5127 56.4419 42.9679 56.4419 42.3998C56.4419 41.8317 56.2162 41.2869 55.8145 40.8852C55.4128 40.4835 54.868 40.2578 54.2999 40.2578C53.7318 40.2578 53.187 40.4835 52.7853 40.8852C52.3836 41.2869 52.1579 41.8317 52.1579 42.3998C52.1579 42.9679 52.3836 43.5127 52.7853 43.9144C53.187 44.3161 53.7318 44.5418 54.2999 44.5418Z" fill="#B2B4B3"/>
<path d="M60.771 37H53.229C49.953 37 48 38.953 48 42.229V49.771C48 50.752 48.171 51.607 48.504 52.327C49.278 54.037 50.934 55 53.229 55H60.771C64.047 55 66 53.047 66 49.771V42.229C66 38.953 64.047 37 60.771 37ZM64.533 46.45C63.831 45.847 62.697 45.847 61.995 46.45L58.251 49.663C57.549 50.266 56.415 50.266 55.713 49.663L55.407 49.411C54.768 48.853 53.751 48.799 53.031 49.285L49.665 51.544C49.467 51.04 49.35 50.455 49.35 49.771V42.229C49.35 39.691 50.691 38.35 53.229 38.35H60.771C63.309 38.35 64.65 39.691 64.65 42.229V46.549L64.533 46.45Z" fill="#B2B4B3"/>
<path opacity="0.7" d="M35.2811 69L37.8171 63.4H38.6091L41.1531 69H40.3131L38.0491 63.848H38.3691L36.1051 69H35.2811ZM36.3611 67.6L36.5771 66.96H39.7291L39.9611 67.6H36.3611ZM43.5894 69.048C43.1787 69.048 42.8107 68.9573 42.4854 68.776C42.1654 68.5947 41.912 68.3413 41.7254 68.016C41.5387 67.6907 41.4454 67.312 41.4454 66.88C41.4454 66.448 41.5387 66.072 41.7254 65.752C41.912 65.4267 42.1654 65.1733 42.4854 64.992C42.8107 64.8107 43.1787 64.72 43.5894 64.72C43.9467 64.72 44.2694 64.8 44.5574 64.96C44.8454 65.12 45.0747 65.36 45.2454 65.68C45.4214 66 45.5094 66.4 45.5094 66.88C45.5094 67.36 45.424 67.76 45.2534 68.08C45.088 68.4 44.8614 68.6427 44.5734 68.808C44.2854 68.968 43.9574 69.048 43.5894 69.048ZM43.6534 68.376C43.92 68.376 44.16 68.3147 44.3734 68.192C44.592 68.0693 44.7627 67.896 44.8854 67.672C45.0134 67.4427 45.0774 67.1787 45.0774 66.88C45.0774 66.576 45.0134 66.3147 44.8854 66.096C44.7627 65.872 44.592 65.6987 44.3734 65.576C44.16 65.4533 43.92 65.392 43.6534 65.392C43.3814 65.392 43.1387 65.4533 42.9254 65.576C42.712 65.6987 42.5414 65.872 42.4134 66.096C42.2854 66.3147 42.2214 66.576 42.2214 66.88C42.2214 67.1787 42.2854 67.4427 42.4134 67.672C42.5414 67.896 42.712 68.0693 42.9254 68.192C43.1387 68.3147 43.3814 68.376 43.6534 68.376ZM45.1014 69V67.856L45.1494 66.872L45.0694 65.888V63.064H45.8374V69H45.1014ZM49.0425 69.048C48.6318 69.048 48.2638 68.9573 47.9385 68.776C47.6185 68.5947 47.3652 68.3413 47.1785 68.016C46.9918 67.6907 46.8985 67.312 46.8985 66.88C46.8985 66.448 46.9918 66.072 47.1785 65.752C47.3652 65.4267 47.6185 65.1733 47.9385 64.992C48.2638 64.8107 48.6318 64.72 49.0425 64.72C49.3998 64.72 49.7225 64.8 50.0105 64.96C50.2985 65.12 50.5278 65.36 50.6985 65.68C50.8745 66 50.9625 66.4 50.9625 66.88C50.9625 67.36 50.8772 67.76 50.7065 68.08C50.5412 68.4 50.3145 68.6427 50.0265 68.808C49.7385 68.968 49.4105 69.048 49.0425 69.048ZM49.1065 68.376C49.3732 68.376 49.6132 68.3147 49.8265 68.192C50.0452 68.0693 50.2158 67.896 50.3385 67.672C50.4665 67.4427 50.5305 67.1787 50.5305 66.88C50.5305 66.576 50.4665 66.3147 50.3385 66.096C50.2158 65.872 50.0452 65.6987 49.8265 65.576C49.6132 65.4533 49.3732 65.392 49.1065 65.392C48.8345 65.392 48.5918 65.4533 48.3785 65.576C48.1652 65.6987 47.9945 65.872 47.8665 66.096C47.7385 66.3147 47.6745 66.576 47.6745 66.88C47.6745 67.1787 47.7385 67.4427 47.8665 67.672C47.9945 67.896 48.1652 68.0693 48.3785 68.192C48.5918 68.3147 48.8345 68.376 49.1065 68.376ZM50.5545 69V67.856L50.6025 66.872L50.5225 65.888V63.064H51.2905V69H50.5545ZM55.0041 69V63.4H57.1881C57.6787 63.4 58.0974 63.4773 58.4441 63.632C58.7907 63.7867 59.0574 64.0107 59.2441 64.304C59.4307 64.5973 59.5241 64.9467 59.5241 65.352C59.5241 65.7573 59.4307 66.1067 59.2441 66.4C59.0574 66.688 58.7907 66.912 58.4441 67.072C58.0974 67.2267 57.6787 67.304 57.1881 67.304H55.4441L55.8041 66.928V69H55.0041ZM55.8041 67.008L55.4441 66.608H57.1641C57.6761 66.608 58.0627 66.4987 58.3241 66.28C58.5907 66.0613 58.7241 65.752 58.7241 65.352C58.7241 64.952 58.5907 64.6427 58.3241 64.424C58.0627 64.2053 57.6761 64.096 57.1641 64.096H55.4441L55.8041 63.696V67.008ZM62.9295 64.72C63.2762 64.72 63.5802 64.7867 63.8415 64.92C64.1082 65.0533 64.3162 65.256 64.4655 65.528C64.6148 65.8 64.6895 66.144 64.6895 66.56V69H63.9215V66.648C63.9215 66.2373 63.8202 65.928 63.6175 65.72C63.4202 65.512 63.1402 65.408 62.7775 65.408C62.5055 65.408 62.2682 65.4613 62.0655 65.568C61.8628 65.6747 61.7055 65.832 61.5935 66.04C61.4868 66.248 61.4335 66.5067 61.4335 66.816V69H60.6655V63.064H61.4335V65.904L61.2815 65.6C61.4202 65.3227 61.6335 65.1067 61.9215 64.952C62.2095 64.7973 62.5455 64.72 62.9295 64.72ZM67.9268 69.048C67.5001 69.048 67.1215 68.9547 66.7908 68.768C66.4601 68.5813 66.1988 68.3253 66.0068 68C65.8148 67.6693 65.7188 67.296 65.7188 66.88C65.7188 66.4587 65.8148 66.0853 66.0068 65.76C66.1988 65.4347 66.4601 65.1813 66.7908 65C67.1215 64.8133 67.5001 64.72 67.9268 64.72C68.3481 64.72 68.7241 64.8133 69.0548 65C69.3908 65.1813 69.6521 65.4347 69.8388 65.76C70.0308 66.08 70.1268 66.4533 70.1268 66.88C70.1268 67.3013 70.0308 67.6747 69.8388 68C69.6521 68.3253 69.3908 68.5813 69.0548 68.768C68.7241 68.9547 68.3481 69.048 67.9268 69.048ZM67.9268 68.376C68.1988 68.376 68.4415 68.3147 68.6548 68.192C68.8735 68.0693 69.0441 67.896 69.1668 67.672C69.2895 67.4427 69.3508 67.1787 69.3508 66.88C69.3508 66.576 69.2895 66.3147 69.1668 66.096C69.0441 65.872 68.8735 65.6987 68.6548 65.576C68.4415 65.4533 68.1988 65.392 67.9268 65.392C67.6548 65.392 67.4121 65.4533 67.1988 65.576C66.9855 65.6987 66.8148 65.872 66.6868 66.096C66.5588 66.3147 66.4948 66.576 66.4948 66.88C66.4948 67.1787 66.5588 67.4427 66.6868 67.672C66.8148 67.896 66.9855 68.0693 67.1988 68.192C67.4121 68.3147 67.6548 68.376 67.9268 68.376ZM72.6449 69.048C72.2183 69.048 71.8876 68.9333 71.6529 68.704C71.4183 68.4747 71.3009 68.1467 71.3009 67.72V63.832H72.0689V67.688C72.0689 67.9173 72.1249 68.0933 72.2369 68.216C72.3543 68.3387 72.5196 68.4 72.7329 68.4C72.9729 68.4 73.1729 68.3333 73.3329 68.2L73.5729 68.752C73.4556 68.8533 73.3143 68.928 73.1489 68.976C72.9889 69.024 72.8209 69.048 72.6449 69.048ZM70.5809 65.392V64.76H73.2849V65.392H70.5809ZM76.1768 69.048C75.7501 69.048 75.3715 68.9547 75.0408 68.768C74.7101 68.5813 74.4488 68.3253 74.2568 68C74.0648 67.6693 73.9688 67.296 73.9688 66.88C73.9688 66.4587 74.0648 66.0853 74.2568 65.76C74.4488 65.4347 74.7101 65.1813 75.0408 65C75.3715 64.8133 75.7501 64.72 76.1768 64.72C76.5981 64.72 76.9741 64.8133 77.3048 65C77.6408 65.1813 77.9021 65.4347 78.0888 65.76C78.2808 66.08 78.3768 66.4533 78.3768 66.88C78.3768 67.3013 78.2808 67.6747 78.0888 68C77.9021 68.3253 77.6408 68.5813 77.3048 68.768C76.9741 68.9547 76.5981 69.048 76.1768 69.048ZM76.1768 68.376C76.4488 68.376 76.6915 68.3147 76.9048 68.192C77.1235 68.0693 77.2941 67.896 77.4168 67.672C77.5395 67.4427 77.6008 67.1787 77.6008 66.88C77.6008 66.576 77.5395 66.3147 77.4168 66.096C77.2941 65.872 77.1235 65.6987 76.9048 65.576C76.6915 65.4533 76.4488 65.392 76.1768 65.392C75.9048 65.392 75.6621 65.4533 75.4488 65.576C75.2355 65.6987 75.0648 65.872 74.9368 66.096C74.8088 66.3147 74.7448 66.576 74.7448 66.88C74.7448 67.1787 74.8088 67.4427 74.9368 67.672C75.0648 67.896 75.2355 68.0693 75.4488 68.192C75.6621 68.3147 75.9048 68.376 76.1768 68.376Z" fill="#747985"/>
</svg>
