<svg width="16" height="16" viewBox="0 0 16 16" fill="none" xmlns="http://www.w3.org/2000/svg">
<path d="M7.64934 0.89443C5.86396 0.897421 4.15255 1.60752 2.89009 2.86916C1.62762 4.13079 0.917056 5.84107 0.914062 7.62529C0.915555 9.41101 1.62528 11.1233 2.88774 12.3871C4.15021 13.6508 5.86246 14.363 7.64934 14.3675C9.23412 14.3675 10.6944 13.8103 11.849 12.8884L14.6535 15.691C14.7955 15.823 14.9833 15.8949 15.1773 15.8915C15.3712 15.8881 15.5563 15.8097 15.6937 15.6728C15.8311 15.5359 15.91 15.3511 15.9139 15.1573C15.9178 14.9634 15.8464 14.7756 15.7147 14.6333L12.9102 11.8278C13.868 10.6374 14.3902 9.15567 14.3903 7.62812C14.3903 3.91766 11.3622 0.89443 7.64934 0.89443ZM7.64934 2.39332C10.5529 2.39332 12.8904 4.7265 12.8904 7.62529C12.8904 10.5241 10.5529 12.8714 7.64934 12.8714C4.74582 12.8714 2.41111 10.5326 2.41111 7.63095C2.41111 4.72932 4.74582 2.39332 7.64934 2.39332Z" fill="#B9B9B9"/>
</svg>
