<svg width="21" height="21" viewBox="0 0 21 21" fill="none" xmlns="http://www.w3.org/2000/svg">
<g id="Frame">
<g id="Group">
<path id="Vector" fillRule="evenodd" clipRule="evenodd" d="M13.9999 1.75H18.3751C18.6071 1.75009 18.8296 1.84232 18.9937 2.00643C19.1577 2.17053 19.2499 2.39307 19.2499 2.62511V7C19.2521 7.11633 19.2312 7.23193 19.1882 7.34006C19.1453 7.44818 19.0812 7.54666 18.9997 7.62972C18.9182 7.71278 18.821 7.77877 18.7137 7.82381C18.6065 7.86885 18.4913 7.89205 18.3749 7.89205C18.2586 7.89205 18.1434 7.86885 18.0361 7.82381C17.9289 7.77877 17.8317 7.71278 17.7502 7.62972C17.6687 7.54666 17.6046 7.44818 17.5617 7.34006C17.5187 7.23193 17.4977 7.11633 17.5 7V4.73397L12.8711 9.37136C12.7898 9.45333 12.693 9.51838 12.5864 9.56278C12.4798 9.60717 12.3655 9.63003 12.25 9.63003C12.1345 9.63003 12.0202 9.60717 11.9136 9.56278C11.807 9.51838 11.7102 9.45333 11.6289 9.37136C11.5468 9.29003 11.4817 9.19325 11.4372 9.08661C11.3928 8.97997 11.3699 8.86559 11.3699 8.75005C11.3699 8.63452 11.3928 8.52014 11.4372 8.4135C11.4817 8.30686 11.5468 8.21008 11.6289 8.12875L16.2663 3.50022H13.9999C13.7678 3.50022 13.5452 3.40802 13.3811 3.24391C13.217 3.07979 13.1248 2.8572 13.1248 2.62511C13.1248 2.39302 13.217 2.17043 13.3811 2.00631C13.5452 1.8422 13.7678 1.75 13.9999 1.75ZM9.63025 12.25C9.63025 12.017 9.53706 11.7932 9.37103 11.6289C9.28971 11.5469 9.19295 11.4818 9.08634 11.4373C8.97973 11.3929 8.86538 11.3701 8.74989 11.3701C8.6344 11.3701 8.52005 11.3929 8.41344 11.4373C8.30683 11.4818 8.21007 11.5469 8.12875 11.6289L3.49989 16.2663V14.0002C3.49545 13.7711 3.40132 13.5529 3.23772 13.3924C3.07412 13.2319 2.8541 13.1421 2.62495 13.1421C2.39579 13.1421 2.17577 13.2319 2.01217 13.3924C1.84857 13.5529 1.75444 13.7711 1.75 14.0002V18.3751C1.75 18.6072 1.8422 18.8298 2.00631 18.9939C2.17043 19.158 2.39302 19.2502 2.62511 19.2502H7C7.23209 19.2502 7.45468 19.158 7.6188 18.9939C7.78291 18.8298 7.87511 18.6072 7.87511 18.3751C7.87511 18.143 7.78291 17.9204 7.6188 17.7563C7.45468 17.5922 7.23209 17.5 7 17.5H4.73364L9.37136 12.8715C9.53706 12.7071 9.63025 12.4833 9.63025 12.25Z" fill="#747985"/>
</g>
</g>
</svg>
